<svg width="176" height="176" viewBox="0 0 176 176" fill="none" xmlns="http://www.w3.org/2000/svg">
<g clip-path="url(#clip0_1_16)">
<path d="M87.83 175.66C136.337 175.66 175.66 136.337 175.66 87.83C175.66 39.3228 136.337 0 87.83 0C39.3228 0 0 39.3228 0 87.83C0 136.337 39.3228 175.66 87.83 175.66Z" fill="#00365C"/>
<path d="M126.93 73.98C121.57 56.87 105.33 44.74 87.22 44.74C71.77 44.74 57.96 53 50.69 66.45C36.18 69.05 25.1 82.03 25.1 96.94C25.1 109.12 32.2 120.23 43.19 125.27L43.97 125.63H44.02V116.79C37.23 112.61 32.98 105.09 32.98 96.94C32.98 85.28 42.07 75.2 53.68 73.98L55.87 73.75L56.82 71.76C62.47 59.95 74.12 52.62 87.22 52.62C102.69 52.62 116.49 63.54 120.04 78.61L120.74 81.6L123.81 81.65C134.22 81.82 142.69 90.43 142.69 100.85C142.69 108.19 138.46 114.18 131.27 117.22V125.6L131.79 125.43C143.37 121.64 150.56 112.22 150.56 100.84C150.56 87.16 140.2 75.7 126.93 73.98Z" fill="white"/>
<path d="M71.97 124.6L73.7 126.33C73.92 126.55 73.76 126.92 73.46 126.92H59.83C56.41 126.92 53.63 124.15 53.63 120.72V94.22C53.63 94.03 53.47 93.87 53.28 93.87H50.33C50.02 93.87 49.87 93.5 50.08 93.28L61.64 81.72C61.78 81.58 61.99 81.58 62.13 81.72L73.69 93.28C73.91 93.5 73.75 93.87 73.45 93.87H70.49C70.3 93.87 70.15 94.03 70.15 94.22V120.22C70.15 121.86 70.8 123.44 71.96 124.6" fill="white"/>
<path d="M97.53 124.6L99.26 126.33C99.48 126.55 99.32 126.92 99.02 126.92H85.39C81.97 126.92 79.19 124.15 79.19 120.72V100.88C79.19 100.69 79.03 100.54 78.84 100.54H75.89C75.58 100.54 75.43 100.17 75.64 99.95L87.2 88.39C87.34 88.25 87.55 88.25 87.69 88.39L99.25 99.95C99.47 100.17 99.31 100.54 99.01 100.54H96.05C95.86 100.54 95.71 100.7 95.71 100.88V120.23C95.71 121.87 96.36 123.45 97.52 124.61" fill="white"/>
<path d="M123.09 124.6L124.82 126.33C125.04 126.55 124.88 126.92 124.58 126.92H110.95C107.53 126.92 104.75 124.15 104.75 120.72V107.54C104.75 107.35 104.59 107.2 104.4 107.2H101.45C101.14 107.2 100.99 106.83 101.2 106.61L112.76 95.05C112.9 94.92 113.11 94.92 113.25 95.05L124.81 106.61C125.03 106.83 124.87 107.2 124.57 107.2H121.61C121.42 107.2 121.27 107.35 121.27 107.54V120.22C121.27 121.86 121.92 123.44 123.08 124.6" fill="white"/>
</g>
<defs>
<clipPath id="clip0_1_16">
<rect width="175.66" height="175.66" fill="white"/>
</clipPath>
</defs>
</svg>
