<svg width="471" height="410" viewBox="0 0 471 410" fill="none" xmlns="http://www.w3.org/2000/svg">
<rect width="471" height="410" rx="8" fill="#EFF1FF"/>
<rect width="471" height="410" rx="8" fill="url(#paint0_radial_1404_16153)" fill-opacity="0.75"/>
<rect width="471" height="410" rx="8" fill="url(#paint1_radial_1404_16153)" fill-opacity="0.75"/>
<rect width="471" height="410" rx="8" fill="url(#paint2_radial_1404_16153)" fill-opacity="0.75"/>
<path fill-rule="evenodd" clip-rule="evenodd" d="M254.577 178.774C260.257 182.958 264.47 188.832 266.613 195.556C271.81 196.235 276.585 198.772 280.057 202.7C283.529 206.627 285.462 211.679 285.5 216.923C285.5 225.981 279.768 233.49 270.54 236.515L270.125 236.648V229.968C275.866 227.548 279.238 222.766 279.238 216.923C279.223 212.913 277.643 209.069 274.833 206.21C272.024 203.351 268.209 201.705 264.203 201.623H261.718L261.121 199.252C259.699 193.377 256.353 188.146 251.618 184.392C246.882 180.638 241.028 178.575 234.986 178.532C229.915 178.508 224.943 179.933 220.654 182.638C216.365 185.344 212.937 189.219 210.773 193.807L210.011 195.374L208.271 195.556C204.439 195.966 200.831 197.566 197.954 200.13C195.076 202.695 193.072 206.097 192.224 209.858C191.376 213.619 191.725 217.552 193.222 221.105C194.72 224.657 197.291 227.652 200.576 229.67V236.714H200.534L199.913 236.433C195.125 234.23 191.165 230.557 188.608 225.947C186.052 221.336 185.032 216.03 185.699 210.8C186.365 205.57 188.682 200.69 192.313 196.869C195.944 193.047 200.699 190.485 205.886 189.555C208.708 184.299 212.908 179.911 218.035 176.864C223.162 173.816 229.023 172.224 234.986 172.258C242.04 172.309 248.897 174.59 254.577 178.774ZM224.217 237.278L222.842 235.902C221.917 234.973 221.396 233.716 221.393 232.405V211.685C221.395 211.611 221.425 211.542 221.478 211.491C221.53 211.44 221.601 211.411 221.674 211.411H224.027C224.08 211.41 224.132 211.393 224.176 211.363C224.22 211.333 224.254 211.291 224.274 211.241C224.294 211.192 224.3 211.138 224.29 211.086C224.28 211.033 224.254 210.985 224.217 210.947L215.014 201.731C214.989 201.705 214.958 201.684 214.925 201.67C214.892 201.656 214.856 201.649 214.819 201.649C214.783 201.649 214.747 201.656 214.714 201.67C214.68 201.684 214.65 201.705 214.625 201.731L205.413 210.947C205.376 210.986 205.35 211.035 205.341 211.088C205.331 211.141 205.337 211.196 205.358 211.245C205.379 211.295 205.415 211.337 205.46 211.367C205.505 211.396 205.558 211.412 205.612 211.411H207.932C208.004 211.411 208.074 211.44 208.125 211.491C208.176 211.542 208.205 211.612 208.205 211.685V232.769C208.205 234.088 208.729 235.353 209.661 236.286C210.593 237.218 211.857 237.742 213.175 237.742H224.027C224.08 237.741 224.132 237.724 224.176 237.694C224.22 237.664 224.254 237.622 224.274 237.573C224.294 237.523 224.3 237.469 224.29 237.417C224.28 237.364 224.254 237.316 224.217 237.278ZM243.195 235.902L244.579 237.278C244.616 237.317 244.641 237.366 244.651 237.419C244.661 237.472 244.655 237.527 244.634 237.576C244.613 237.626 244.577 237.668 244.532 237.698C244.487 237.727 244.434 237.743 244.38 237.742H233.553C232.235 237.742 230.971 237.218 230.039 236.286C229.106 235.353 228.583 234.088 228.583 232.769V217.014C228.583 216.94 228.554 216.87 228.503 216.817C228.452 216.765 228.383 216.734 228.309 216.732H225.965C225.912 216.731 225.86 216.714 225.816 216.684C225.772 216.654 225.738 216.612 225.718 216.562C225.697 216.513 225.692 216.459 225.702 216.407C225.712 216.354 225.737 216.306 225.775 216.268L234.978 207.068C235.003 207.042 235.034 207.022 235.067 207.008C235.1 206.994 235.136 206.987 235.172 206.987C235.209 206.987 235.245 206.994 235.278 207.008C235.311 207.022 235.342 207.042 235.367 207.068L244.579 216.251C244.616 216.29 244.641 216.339 244.651 216.392C244.661 216.445 244.655 216.5 244.634 216.55C244.613 216.599 244.577 216.641 244.532 216.671C244.487 216.7 244.434 216.716 244.38 216.715H242.027C241.954 216.717 241.884 216.748 241.833 216.801C241.782 216.853 241.754 216.924 241.754 216.997V232.405C241.755 233.715 242.273 234.972 243.195 235.902ZM264.932 237.278L263.557 235.902C262.631 234.973 262.11 233.716 262.107 232.405V222.301C262.107 222.229 262.136 222.159 262.187 222.108C262.238 222.057 262.308 222.028 262.38 222.028H264.741C264.796 222.029 264.85 222.013 264.896 221.982C264.941 221.951 264.977 221.908 264.997 221.857C265.018 221.806 265.023 221.75 265.011 221.696C264.999 221.642 264.972 221.593 264.932 221.556L255.72 212.348C255.695 212.322 255.666 212.302 255.633 212.288C255.6 212.274 255.565 212.267 255.53 212.267C255.494 212.267 255.459 212.274 255.426 212.288C255.393 212.302 255.364 212.322 255.339 212.348L246.128 221.556C246.088 221.593 246.06 221.642 246.048 221.696C246.036 221.75 246.041 221.806 246.062 221.857C246.082 221.908 246.118 221.951 246.164 221.982C246.209 222.013 246.263 222.029 246.318 222.028H248.638C248.71 222.028 248.78 222.057 248.831 222.108C248.882 222.159 248.911 222.229 248.911 222.301V232.769C248.911 234.088 249.435 235.353 250.367 236.286C251.299 237.218 252.563 237.742 253.881 237.742H264.741C264.794 237.741 264.846 237.724 264.89 237.694C264.934 237.664 264.968 237.622 264.988 237.573C265.009 237.523 265.014 237.469 265.004 237.417C264.994 237.364 264.969 237.316 264.932 237.278Z" fill="#3448C5"/>
<defs>
<radialGradient id="paint0_radial_1404_16153" cx="0" cy="0" r="1" gradientUnits="userSpaceOnUse" gradientTransform="translate(-15.074 450.217) rotate(1.50001) scale(285.515 367.006)">
<stop stop-color="#3F5FFF"/>
<stop offset="1" stop-color="#95A7FF" stop-opacity="0"/>
</radialGradient>
<radialGradient id="paint1_radial_1404_16153" cx="0" cy="0" r="1" gradientUnits="userSpaceOnUse" gradientTransform="translate(205.846 464.809) rotate(-32.0395) scale(202.605 233.978)">
<stop stop-color="#0D9AFF"/>
<stop offset="1" stop-color="#90D0FF" stop-opacity="0"/>
</radialGradient>
<radialGradient id="paint2_radial_1404_16153" cx="0" cy="0" r="1" gradientUnits="userSpaceOnUse" gradientTransform="translate(402.302 52.3177) rotate(113.607) scale(274.603 254.115)">
<stop stop-color="#48C4D8"/>
<stop offset="1" stop-color="#5FE4FA" stop-opacity="0"/>
</radialGradient>
</defs>
</svg>
